<?xml version="1.0" encoding="UTF-8"?>
<svg width="24px" height="40px" viewBox="0 0 40 40" version="1.1" xmlns="http://www.w3.org/2000/svg" xmlns:xlink="http://www.w3.org/1999/xlink">
    <title>TAK CIV + logotype</title>
    <defs>
        <linearGradient x1="5.35374776e-07%" y1="49.2363701%" x2="100%" y2="49.2363701%" id="linearGradient-1">
            <stop stop-color="#838383" offset="0%"></stop>
            <stop stop-color="#1D1D1D" offset="50%"></stop>
            <stop stop-color="#838383" offset="100%"></stop>
        </linearGradient>
    </defs>
    <g id="TAK-CIV-+-logotype" stroke="none" stroke-width="1" fill="none" fill-rule="evenodd">
        <g id="Group-2">
            <!-- <rect id="bounds" x="0" y="0" width="104" height="40"></rect> -->
            <g id="Group">
                <!-- <text id="WebTAK" font-family="Arial" font-size="14" font-weight="bold" letter-spacing="0.3" fill="#FFFFFF" fill-opacity="0.7">
                    <tspan x="40" y="26">WebTAK</tspan>
                </text> -->
                <g id="icon/TAK-CIV">
                    <rect id="bounds" x="0" y="0" width="40" height="40"></rect>
                    <g id="TAK-CIV-Vector" transform="translate(8.500000, 8.000000)" fill-rule="nonzero">
                        <path d="M10.6067413,22.8223049 C10.4017625,22.6634632 10.0627953,22.3877174 9.85348114,22.2095379 C9.31784382,21.7535742 7.98640459,20.3779949 7.49704778,19.7749857 C4.7837421,16.4314998 3.25400696,12.3090721 2.7969226,8.10057217 C2.72349366,7.42448197 2.65319453,6.20348662 2.66888016,5.87658535 L2.68104322,5.6230598 L3.17578587,5.4951455 C5.85543687,4.80233082 8.67027289,3.22290309 10.6269633,1.31422921 C10.8737318,1.07351844 11.0898689,0.882196054 11.1072717,0.888888889 C11.1246775,0.895940734 11.3766065,1.12498139 11.6671194,1.39804797 C12.9470993,2.60115795 14.1400471,3.43804486 15.6965806,4.22483198 C16.7773269,4.77111873 17.9565023,5.21800595 19.0646071,5.50125587 L19.5403516,5.62286377 L19.5528252,5.85697783 C19.5718873,6.21484365 19.4877171,7.69008594 19.4068441,8.41549304 C18.9371126,12.6288719 17.4003841,16.5989195 14.8930881,19.6969477 C14.4128711,20.2903051 13.1131623,21.6002888 12.5365086,22.0721566 C11.9078627,22.5865708 11.160646,23.1111111 11.0565034,23.1111111 C11.0141109,23.1111111 10.811717,22.9811466 10.6067413,22.8223049 L10.6067413,22.8223049 Z" id="path4751-5" fill="url(#linearGradient-1)"></path>
                        <path d="M10.5842125,23.71774 C9.24405042,22.781125 7.78340896,21.3610585 6.52280008,19.7691483 L6.1245065,19.2661799 L3.0622548,19.2661799 C0.43769013,19.2661799 0,19.2581451 0,19.2099639 C0,19.1417739 1.88249913,12.4982529 1.93743649,12.3725545 C1.97297654,12.2912432 2.00214388,12.2837954 2.28503393,12.2837954 C2.45487221,12.2837954 2.60428932,12.2665876 2.61706884,12.2455559 C2.62984526,12.2245245 2.57898468,11.9715608 2.50404188,11.6834148 C2.05472949,9.95584784 1.83443087,8.3128099 1.79571068,6.40052964 C1.76959938,5.11102412 1.74083537,5.21654318 2.13302308,5.16306174 C3.04510064,5.03868441 4.76767423,4.44022068 6.03533217,3.80730578 C7.81795618,2.91727849 9.13945938,1.96082659 10.5568137,0.534841191 L11.0884157,0 L11.7978453,0.707996123 C13.1346318,2.04208546 14.3040248,2.89166821 15.9660143,3.73623852 C17.3308606,4.42981037 19.0200473,5.01827502 20.069808,5.16588342 C20.4170704,5.21471245 20.399457,5.17148857 20.399457,5.97494786 C20.399457,7.76890787 20.1733504,9.80476481 19.7907869,11.4553769 C19.5896002,12.323414 19.5765104,12.2616894 19.9647144,12.2755541 C20.2539492,12.2858846 20.289905,12.2957858 20.3228637,12.3741754 C20.3771247,12.5032259 22.2222222,19.1433234 22.2222222,19.2095458 C22.2222222,19.2582587 21.8086112,19.2662642 19.2650766,19.266784 C17.6386488,19.2670996 16.2888439,19.28043 16.2655125,19.2963704 C16.2421811,19.3123107 16.0480155,19.5472505 15.8340306,19.818459 C14.8883304,21.0170609 13.7845817,22.1165089 12.6604212,22.9797005 C11.9661322,23.5128139 11.1999473,24 11.0558232,24 C11.0185674,24 10.8063417,23.8729828 10.5842125,23.71774 Z M11.4912732,22.8794795 C11.9514105,22.5708989 12.4526601,22.1817994 12.9778802,21.7254844 C13.7799403,21.0286481 15.2838069,19.4073021 15.2221741,19.3058667 C15.1834912,19.2421984 7.17464572,19.2517762 7.17494978,19.3154906 C7.1758185,19.4955114 9.13904053,21.5763826 9.94147915,22.2477923 C10.6303634,22.8241907 10.9894,23.0891423 11.0840597,23.0909719 C11.1331736,23.0919116 11.3164181,22.9967423 11.4912732,22.8794795 L11.4912732,22.8794795 Z M18.7996029,12.2344847 C18.8438922,12.1777559 19.1166213,11.0419124 19.2329494,10.4297158 C19.4529533,9.27191656 19.5670103,8.21717948 19.6232755,6.82017806 C19.6498802,6.159641 19.6471685,5.94194903 19.6119356,5.90893695 C19.5864728,5.88508133 19.3038588,5.79858466 18.9839054,5.71672208 C16.2851115,5.02621679 13.642164,3.54460401 11.5463905,1.54731384 L11.0896754,1.11206213 L10.7582982,1.42169183 C9.92874927,2.19679837 9.27084739,2.73572261 8.55779407,3.22425284 C6.90664185,4.35549319 4.91535079,5.275691 3.12197014,5.73620585 C2.84467714,5.80741071 2.59438588,5.88742647 2.56576459,5.91401886 C2.52272251,5.95401112 2.5211464,6.11905008 2.55664301,6.86883037 C2.63854489,8.5989182 2.85913205,10.0534166 3.28214388,11.6526194 C3.35962149,11.9455245 3.44031026,12.2073637 3.46145433,12.2344847 C3.49197751,12.2736338 5.07237851,12.2837954 11.1305022,12.2837954 C17.1886011,12.2837954 18.7690394,12.2736334 18.7996029,12.2344847 L18.7996029,12.2344847 Z" id="path4690-7" fill="#0B0B0B"></path>
                        <g id="g4148" transform="translate(5.333333, 5.333333)" fill="#FFFFFF">
                            <path d="M11.4971433,0 C9.28907539,1.79911111 7.39749718,0.725333333 6.72035635,1.99822222 L6.30082344,1.06666667 L6.91172224,1.06666667 C6.91172224,1.06666667 6.96324382,0.497777778 6.41122684,0.497777778 C5.94753257,0.497777778 5.46911785,0.497777778 5.46911785,0.497777778 L4.77725656,1.99822222 C4.10011573,0.718222222 2.21589775,1.79911111 0.000469579505,0 C0.000469579505,0 -0.109933815,1.29422222 3.05496357,2.46755556 L0.8395354,2.00533333 C1.40627284,2.85866667 1.63443986,2.70222222 3.37881353,3.264 L1.81108529,3.12177778 C1.81108529,3.12177778 3.05496357,3.93244444 5.29983264,3.93244444 C5.41023604,3.93244444 6.08737687,3.93244444 6.19778027,3.93244444 C8.40584821,3.93244444 9.68652762,3.12177778 9.68652762,3.12177778 L8.11879938,3.264 C9.86317305,2.70222222 10.0839798,2.85866667 10.6580775,2.00533333 L8.44264934,2.46755556 C11.6075467,1.29422222 11.4971433,0 11.4971433,0 Z" id="path3"></path>
                            <polygon id="polygon5" points="6.6246734 4.84266667 7.08100745 4.12444444 6.42594729 4.14577778 5.2041497 4.14577778 4.54172931 4.12444444 5.00542358 4.84266667 5.4838383 4.416 5.28511219 5.01333333 5.81504849 5.312 6.3449848 5.01333333 6.14625868 4.416"></polygon>
                        </g>
                        <g id="g4138" transform="translate(5.333333, 15.111111)" fill="#FFFFFF">
                            <path d="M0.837674327,2.64031479 C0.719226681,2.6047725 0.705655824,2.52505688 0.718107987,1.93797813 L0.729276782,1.41140625 C0.691572803,1.37583879 0.65450685,1.33835033 0.494261479,1.29804196 C0.616802871,1.26484704 0.659906008,1.21959668 0.659906008,1.21959668 C0.755556097,1.14951107 0.774618495,0.895628531 0.731629237,0.699746812 L0.7055503,0.5809175 L0.46263871,0.5809175 C0.32903731,0.5809175 0.175734572,0.569488812 0.121966023,0.555520396 C0.0277316869,0.531039479 0.0242049557,0.522229667 0.0242049557,0.311313229 C0.0242049557,0.156597083 0.0396759848,0.0837297917 0.0770214975,0.0625517917 C0.114832068,0.0411100833 0.515414457,0.0332922917 1.48695139,0.0350355208 C3.07550196,0.0378858958 2.97867586,0.0204351667 2.94954488,0.29863475 C2.921217,0.569162521 2.88043809,0.596282625 2.46891335,0.618279896 C2.21361286,0.631926458 2.12078642,0.646770729 2.10401635,0.676632062 C2.0916459,0.698659292 2.07277793,0.807037042 2.07838125,0.917337885 C2.0902671,1.15131044 2.11048853,1.30406002 2.36144711,1.40524792 C2.13938083,1.4680101 2.1320336,1.50456473 2.12036444,1.54411479 L2.11978087,2.05861 C2.11946073,2.34158208 2.10560004,2.58773667 2.08898114,2.60562 C2.05093333,2.6465625 0.959359113,2.67682833 0.837674327,2.64031479 Z M4.11163253,2.64377083 C4.06442305,2.63871125 4.00825696,2.61217729 3.9868185,2.58480625 C3.9474226,2.53450729 3.95232106,2.50475417 4.07878457,2.02623 C4.19560026,1.58421229 4.19088809,1.53323394 4.14554153,1.48081898 C4.09660147,1.42425038 4.03674186,1.39430863 3.90380785,1.32949794 C4.03326361,1.29029998 4.09713595,1.26973983 4.14711693,1.22622457 C4.22896837,1.15496166 4.34316714,0.938174781 4.40778648,0.61998 C4.46581122,0.334256146 4.54940728,0.107925125 4.61295156,0.0645053958 C4.6615849,0.03127475 4.81407554,0.02442375 5.53956442,0.0228752292 L6.40796351,0.0210216875 L6.43905649,0.164250854 C6.52053352,0.418709875 6.5360698,0.547934417 6.63465393,0.8695666 C6.67157469,0.962536504 6.77158391,1.12680248 6.88450059,1.19877204 C6.92128537,1.23411044 6.97486168,1.26913042 7.05021153,1.28950875 C6.96274237,1.32282346 6.91219246,1.34667104 6.88082416,1.37777563 C6.8307203,1.41258708 6.81601517,1.47383398 7.00632328,1.97414669 C7.02811572,2.03143835 7.06959712,2.12246315 7.09850399,2.17642377 C7.21527974,2.39441044 7.22497055,2.47702085 7.14219893,2.54892148 C7.07013556,2.61152065 7.04624392,2.61548398 6.77465635,2.60989356 C6.6148985,2.60660502 6.35361489,2.6131019 6.19402596,2.62433127 C5.85942982,2.64787502 5.84093636,2.6392669 5.83220566,2.45591752 C5.8291375,2.3914644 5.80778502,2.30650335 5.78475776,2.26711544 C5.74811598,2.20443981 5.7223166,2.19550085 5.57806546,2.19550085 C5.48741167,2.19550085 5.39266008,2.20956335 5.36750616,2.22675085 C5.34106711,2.24481648 5.32177177,2.33136627 5.32177177,2.43189565 C5.32177177,2.53941523 5.30358778,2.61597794 5.27413179,2.63248106 C5.23013835,2.65712877 4.31885474,2.66597898 4.11163253,2.64377083 Z M5.72546892,1.57985521 C5.77768448,1.38967208 5.65879214,0.724146667 5.57260172,0.724146667 C5.47949169,0.724146667 5.29192948,1.57401146 5.37000905,1.64211542 C5.39053495,1.66001917 5.47305351,1.6746675 5.55338322,1.6746675 C5.6912038,1.6746675 5.70090528,1.6693225 5.72546892,1.57985521 Z M10.4859465,2.63872083 C10.1903673,2.59377792 10.1510348,2.56396833 10.0211388,2.28645083 C9.74479146,1.69604521 9.72370669,1.69091979 9.72370669,2.21414958 L9.72370669,2.59681146 L9.57125873,2.61978625 C9.34497473,2.65388833 8.64924034,2.62340708 8.54026261,2.57461667 C8.41971774,2.5206475 8.39083769,2.39586771 8.43203279,2.10699292 C8.49182379,1.68771188 8.46991275,1.34003729 8.37439892,1.19249734 C8.32841055,1.12145924 8.25461873,1.03703312 8.21041705,1.0048838 C8.21041705,1.0048838 8.18944631,0.978309492 8.12058404,0.939962215 C8.17478234,0.921019513 8.2315753,0.89186274 8.2315753,0.89186274 C8.40009067,0.801289313 8.42454332,0.742014021 8.44579091,0.372584167 L8.466011,0.0210216667 L9.00965111,0.0137939583 C9.33589462,0.0094565625 9.58303686,0.017444 9.62767636,0.0337681042 C9.74360389,0.0761613125 9.79060848,0.250144625 9.77549906,0.5809175 C9.76441822,0.823488525 9.77187079,0.880396708 9.8147102,0.880396708 C9.84778073,0.880396708 9.9009683,0.803724229 9.95663955,0.675798604 C10.0850209,0.380793229 10.2342317,0.13407425 10.325074,0.0665945833 C10.3990225,0.011663625 10.434585,0.00800083333 10.8939622,0.00800083333 C11.2710986,0.00800083333 11.388536,0.0161301875 11.4037903,0.0432926042 C11.4146912,0.0627031042 11.3823186,0.142382292 11.3318507,0.2203575 C11.2813828,0.298332688 11.2184513,0.408427938 11.1920031,0.465013625 C11.1655549,0.521599292 11.0573391,0.706958563 10.9515235,0.876923142 L10.7591314,1.18594957 L10.846925,1.38473563 C10.8952117,1.49406792 10.9652252,1.65383417 11.0025109,1.73977167 C11.1172186,2.00415396 11.2523317,2.22643229 11.4139921,2.41671229 C11.4991062,2.51689438 11.5566453,2.60628021 11.5418575,2.61534792 C11.5024149,2.63953333 10.6197827,2.65907063 10.4859465,2.63872083 Z" id="path4140"></path>
                        </g>
                    </g>
                </g>
            </g>
        </g>
    </g>
</svg>