<?xml version="1.0" encoding="UTF-8"?>
<svg width="32px" height="32px" viewBox="0 0 32 32" version="1.1" xmlns="http://www.w3.org/2000/svg" xmlns:xlink="http://www.w3.org/1999/xlink">
    <title>forward-observer_Teal</title>
    <g id="forward-observer_Teal" stroke="none" stroke-width="1" fill="none" fill-rule="evenodd">
        <circle id="Oval" fill="#027F7F" cx="16" cy="16" r="16"></circle>
        <path d="M16.0151947,30.9657795 C18.0816817,30.9657795 20.0164519,30.5754158 21.8195632,29.7946768 C23.6226744,29.0139378 25.2029055,27.94424 26.5603039,26.5855513 C27.9177023,25.2268627 28.9863842,23.6400598 29.7663818,21.8250951 C30.5463793,20.0101303 30.9363723,18.0684514 30.9363723,16 C30.9363723,13.9315486 30.5463793,11.9898697 29.7663818,10.1749049 C28.9863842,8.35994023 27.9177023,6.778207 26.5603039,5.42965779 C25.2029055,4.08110859 23.6226744,3.0114108 21.8195632,2.22053232 C20.0164519,1.42965384 18.0816817,1.03422053 16.0151947,1.03422053 C13.9487076,1.03422053 12.0088726,1.42965384 10.1956315,2.22053232 C8.38239043,3.0114108 6.79709447,4.08110859 5.43969611,5.42965779 C4.08229774,6.778207 3.0136158,8.35994023 2.23361823,10.1749049 C1.45362066,11.9898697 1.06362773,13.9315486 1.06362773,16 C1.06362773,18.0684514 1.45362066,20.0101303 2.23361823,21.8250951 C3.0136158,23.6400598 4.08229774,25.2268627 5.43969611,26.5855513 C6.79709447,27.94424 8.38239043,29.0139378 10.1956315,29.7946768 C12.0088726,30.5754158 13.9487076,30.9657795 16.0151947,30.9657795 Z M32,16 C32,18.210404 31.579618,20.2889637 30.7388414,22.2357414 C29.8980648,24.1825192 28.7534102,25.8757849 27.3048433,27.3155894 C25.8562764,28.7553938 24.1646187,29.8960668 22.2298196,30.7376426 C20.2950204,31.5792184 18.2234995,32 16.0151947,32 C13.8068899,32 11.7303041,31.5792184 9.78537512,30.7376426 C7.84044612,29.8960668 6.14372361,28.7553938 4.6951567,27.3155894 C3.24658978,25.8757849 2.10193519,24.1825192 1.26115859,22.2357414 C0.420381994,20.2889637 0,18.210404 0,16 C0,13.789596 0.420381994,11.7110363 1.26115859,9.76425856 C2.10193519,7.81748076 3.24658978,6.12421506 4.6951567,4.68441065 C6.14372361,3.24460624 7.84044612,2.10393323 9.78537512,1.26235741 C11.7303041,0.420781597 13.8068899,0 16.0151947,0 C18.2234995,0 20.2950204,0.420781597 22.2298196,1.26235741 C24.1646187,2.10393323 25.8562764,3.24460624 27.3048433,4.68441065 C28.7534102,6.12421506 29.8980648,7.81748076 30.7388414,9.76425856 C31.579618,11.7110363 32,13.789596 32,16 Z" id="" fill="#000000" fill-rule="nonzero"></path>
        <path d="M8.828125,22 L8.828125,16.796875 L14.203125,16.796875 L14.203125,15.4453125 L8.828125,15.4453125 L8.828125,11.8984375 L15.0390625,11.8984375 L15.0390625,10.546875 L7.3125,10.546875 L7.3125,22 L8.828125,22 Z M21.4901042,22.1953125 C22.4848958,22.1953125 23.4119792,21.9596354 24.2713542,21.4882812 C25.1307292,21.0169271 25.7947917,20.3229167 26.2635417,19.40625 C26.7322917,18.4895833 26.9666667,17.4505208 26.9666667,16.2890625 C26.9666667,15.1432292 26.7440104,14.1184896 26.2986979,13.2148438 C25.8533854,12.3111979 25.20625,11.6067708 24.3572917,11.1015625 C23.5083333,10.5963542 22.5552083,10.34375 21.4979167,10.34375 C19.8833333,10.34375 18.565625,10.8815104 17.5447917,11.9570312 C16.5239583,13.0325521 16.0135417,14.5208333 16.0135417,16.421875 C16.0135417,17.4270833 16.2322917,18.3802083 16.6697917,19.28125 C17.1072917,20.1822917 17.7505208,20.8932292 18.5994792,21.4140625 C19.4484375,21.9348958 20.4119792,22.1953125 21.4901042,22.1953125 Z M21.4822917,20.8984375 C20.3625,20.8984375 19.4315104,20.5013021 18.6893229,19.7070312 C17.9471354,18.9127604 17.5760417,17.8255208 17.5760417,16.4453125 C17.5760417,14.7213542 17.9627604,13.4908854 18.7361979,12.7539062 C19.5096354,12.0169271 20.4328125,11.6484375 21.5057292,11.6484375 C22.2609375,11.6484375 22.9419271,11.8398438 23.5486979,12.2226562 C24.1554688,12.6054688 24.6164063,13.1445312 24.9315104,13.8398438 C25.2466146,14.5351562 25.4041667,15.3489583 25.4041667,16.28125 C25.4041667,17.7552083 25.0356771,18.8932292 24.2986979,19.6953125 C23.5617188,20.4973958 22.6229167,20.8984375 21.4822917,20.8984375 Z" id="FO" fill="#FFFFFF" fill-rule="nonzero"></path>
    </g>
</svg>