<?xml version="1.0" encoding="UTF-8"?>
<svg width="32px" height="32px" viewBox="0 0 32 32" version="1.1" xmlns="http://www.w3.org/2000/svg" xmlns:xlink="http://www.w3.org/1999/xlink">
    <title>K9_Yellow</title>
    <g id="K9_Yellow" stroke="none" stroke-width="1" fill="none" fill-rule="evenodd">
        <circle id="Oval" fill="#FFFF00" cx="16" cy="16" r="16"></circle>
        <path d="M16.0151947,30.9657795 C18.0816817,30.9657795 20.0164519,30.5754158 21.8195632,29.7946768 C23.6226744,29.0139378 25.2029055,27.94424 26.5603039,26.5855513 C27.9177023,25.2268627 28.9863842,23.6400598 29.7663818,21.8250951 C30.5463793,20.0101303 30.9363723,18.0684514 30.9363723,16 C30.9363723,13.9315486 30.5463793,11.9898697 29.7663818,10.1749049 C28.9863842,8.35994023 27.9177023,6.778207 26.5603039,5.42965779 C25.2029055,4.08110859 23.6226744,3.0114108 21.8195632,2.22053232 C20.0164519,1.42965384 18.0816817,1.03422053 16.0151947,1.03422053 C13.9487076,1.03422053 12.0088726,1.42965384 10.1956315,2.22053232 C8.38239043,3.0114108 6.79709447,4.08110859 5.43969611,5.42965779 C4.08229774,6.778207 3.0136158,8.35994023 2.23361823,10.1749049 C1.45362066,11.9898697 1.06362773,13.9315486 1.06362773,16 C1.06362773,18.0684514 1.45362066,20.0101303 2.23361823,21.8250951 C3.0136158,23.6400598 4.08229774,25.2268627 5.43969611,26.5855513 C6.79709447,27.94424 8.38239043,29.0139378 10.1956315,29.7946768 C12.0088726,30.5754158 13.9487076,30.9657795 16.0151947,30.9657795 Z M32,16 C32,18.210404 31.579618,20.2889637 30.7388414,22.2357414 C29.8980648,24.1825192 28.7534102,25.8757849 27.3048433,27.3155894 C25.8562764,28.7553938 24.1646187,29.8960668 22.2298196,30.7376426 C20.2950204,31.5792184 18.2234995,32 16.0151947,32 C13.8068899,32 11.7303041,31.5792184 9.78537512,30.7376426 C7.84044612,29.8960668 6.14372361,28.7553938 4.6951567,27.3155894 C3.24658978,25.8757849 2.10193519,24.1825192 1.26115859,22.2357414 C0.420381994,20.2889637 0,18.210404 0,16 C0,13.789596 0.420381994,11.7110363 1.26115859,9.76425856 C2.10193519,7.81748076 3.24658978,6.12421506 4.6951567,4.68441065 C6.14372361,3.24460624 7.84044612,2.10393323 9.78537512,1.26235741 C11.7303041,0.420781597 13.8068899,0 16.0151947,0 C18.2234995,0 20.2950204,0.420781597 22.2298196,1.26235741 C24.1646187,2.10393323 25.8562764,3.24460624 27.3048433,4.68441065 C28.7534102,6.12421506 29.8980648,7.81748076 30.7388414,9.76425856 C31.579618,11.7110363 32,13.789596 32,16 Z" id="" fill="#000000" fill-rule="nonzero"></path>
        <path d="M9.6875,22 L9.6875,18.03125 L11.5625,16.203125 L15.640625,22 L17.640625,22 L12.625,15.1875 L17.4296875,10.546875 L15.375,10.546875 L9.6875,16.2265625 L9.6875,10.546875 L8.171875,10.546875 L8.171875,22 L9.6875,22 Z M21.2322917,22.1953125 C22.0760417,22.1953125 22.8117188,21.96875 23.4393229,21.515625 C24.0669271,21.0625 24.5395833,20.4023438 24.8572917,19.5351562 C25.175,18.6679688 25.3338542,17.5026042 25.3338542,16.0390625 C25.3338542,14.6328125 25.1736979,13.5585938 24.8533854,12.8164062 C24.5330729,12.0742188 24.0643229,11.5026042 23.4471354,11.1015625 C22.8299479,10.7005208 22.1489583,10.5 21.4041667,10.5 C20.3729167,10.5 19.5148438,10.8541667 18.8299479,11.5625 C18.1450521,12.2708333 17.8026042,13.2057292 17.8026042,14.3671875 C17.8026042,15.4921875 18.1307292,16.3984375 18.7869792,17.0859375 C19.4432292,17.7734375 20.2453125,18.1171875 21.1932292,18.1171875 C21.7609375,18.1171875 22.2882813,17.9778646 22.7752604,17.6992188 C23.2622396,17.4205729 23.6463542,17.0572917 23.9276042,16.609375 C23.9328125,16.734375 23.9354167,16.828125 23.9354167,16.890625 C23.9354167,17.4739583 23.8651042,18.046875 23.7244792,18.609375 C23.5838542,19.171875 23.409375,19.6184896 23.2010417,19.9492188 C22.9927083,20.2799479 22.7257813,20.5442708 22.4002604,20.7421875 C22.0747396,20.9401042 21.6958333,21.0390625 21.2635417,21.0390625 C20.7583333,21.0390625 20.3442708,20.8958333 20.0213542,20.609375 C19.6984375,20.3229167 19.4796875,19.8619792 19.3651042,19.2265625 L19.3651042,19.2265625 L18.0135417,19.3515625 C18.128125,20.2526042 18.4692708,20.9518229 19.0369792,21.4492188 C19.6046875,21.9466146 20.3364583,22.1953125 21.2322917,22.1953125 Z M21.5369792,16.875 C20.8911458,16.875 20.3481771,16.6471354 19.9080729,16.1914062 C19.4679688,15.7356771 19.2479167,15.1432292 19.2479167,14.4140625 C19.2479167,13.6015625 19.4796875,12.9401042 19.9432292,12.4296875 C20.4067708,11.9192708 20.9510417,11.6640625 21.5760417,11.6640625 C22.1802083,11.6640625 22.6971354,11.9010417 23.1268229,12.375 C23.5565104,12.8489583 23.7713542,13.4895833 23.7713542,14.296875 C23.7713542,15.1041667 23.5617188,15.7356771 23.1424479,16.1914062 C22.7231771,16.6471354 22.1880208,16.875 21.5369792,16.875 Z" id="K9" fill="#000000" fill-rule="nonzero"></path>
    </g>
</svg>