<?xml version="1.0" encoding="UTF-8"?>
<svg width="32px" height="32px" viewBox="0 0 32 32" version="1.1" xmlns="http://www.w3.org/2000/svg" xmlns:xlink="http://www.w3.org/1999/xlink">
    <title>non-gps-rto_Brown</title>
    <defs>
        <linearGradient x1="50%" y1="0%" x2="50%" y2="99.1791596%" id="linearGradient-1">
            <stop stop-color="#000000" offset="0%"></stop>
            <stop stop-color="#9B9B9B" offset="25.2190667%"></stop>
            <stop stop-color="#888888" offset="78.4206081%"></stop>
            <stop stop-color="#000000" offset="100%"></stop>
        </linearGradient>
        <path d="M12.1870256,1.31225741 L19.5156416,1.23951201 C18.8253695,2.16449368 18.4551877,4.26143235 18.4050962,7.53032801 C18.329959,12.4336715 18.6813563,20.8223266 18.8297266,24.9828108 C18.9286402,27.756467 19.4866214,29.800131 20.5036704,31.113803 L12.075984,31.316839 C13.1002566,30.4942396 13.6473249,28.4011921 13.7171889,25.0376965 C13.8219848,19.9924531 13.480664,10.9190233 13.3257206,7.42943309 C13.2224249,5.1030396 12.8428599,3.06398104 12.1870256,1.31225741 Z" id="path-2"></path>
        <filter x="-23.7%" y="-6.6%" width="147.5%" height="113.3%" filterUnits="objectBoundingBox" id="filter-3">
            <feGaussianBlur stdDeviation="1.5" in="SourceAlpha" result="shadowBlurInner1"></feGaussianBlur>
            <feOffset dx="1" dy="1" in="shadowBlurInner1" result="shadowOffsetInner1"></feOffset>
            <feComposite in="shadowOffsetInner1" in2="SourceAlpha" operator="arithmetic" k2="-1" k3="1" result="shadowInnerInner1"></feComposite>
            <feColorMatrix values="0 0 0 0 0.290221632   0 0 0 0 0.290175289   0 0 0 0 0.290237457  0 0 0 1 0" type="matrix" in="shadowInnerInner1"></feColorMatrix>
        </filter>
    </defs>
    <g id="non-gps-rto_Brown" stroke="none" stroke-width="1" fill="none" fill-rule="evenodd">
        <circle id="Oval" fill="#964B00" cx="16" cy="16" r="16"></circle>
        <g id="Rectangle" transform="translate(16.289827, 16.278176) rotate(-315.000000) translate(-16.289827, -16.278176) ">
            <use fill="url(#linearGradient-1)" fill-rule="evenodd" xlink:href="#path-2"></use>
            <use fill="black" fill-opacity="1" filter="url(#filter-3)" xlink:href="#path-2"></use>
        </g>
        <path d="M16.0151947,30.9657795 C18.0816817,30.9657795 20.0164519,30.5754158 21.8195632,29.7946768 C23.6226744,29.0139378 25.2029055,27.94424 26.5603039,26.5855513 C27.9177023,25.2268627 28.9863842,23.6400598 29.7663818,21.8250951 C30.5463793,20.0101303 30.9363723,18.0684514 30.9363723,16 C30.9363723,13.9315486 30.5463793,11.9898697 29.7663818,10.1749049 C28.9863842,8.35994023 27.9177023,6.778207 26.5603039,5.42965779 C25.2029055,4.08110859 23.6226744,3.0114108 21.8195632,2.22053232 C20.0164519,1.42965384 18.0816817,1.03422053 16.0151947,1.03422053 C13.9487076,1.03422053 12.0088726,1.42965384 10.1956315,2.22053232 C8.38239043,3.0114108 6.79709447,4.08110859 5.43969611,5.42965779 C4.08229774,6.778207 3.0136158,8.35994023 2.23361823,10.1749049 C1.45362066,11.9898697 1.06362773,13.9315486 1.06362773,16 C1.06362773,18.0684514 1.45362066,20.0101303 2.23361823,21.8250951 C3.0136158,23.6400598 4.08229774,25.2268627 5.43969611,26.5855513 C6.79709447,27.94424 8.38239043,29.0139378 10.1956315,29.7946768 C12.0088726,30.5754158 13.9487076,30.9657795 16.0151947,30.9657795 Z M32,16 C32,18.210404 31.579618,20.2889637 30.7388414,22.2357414 C29.8980648,24.1825192 28.7534102,25.8757849 27.3048433,27.3155894 C25.8562764,28.7553938 24.1646187,29.8960668 22.2298196,30.7376426 C20.2950204,31.5792184 18.2234995,32 16.0151947,32 C13.8068899,32 11.7303041,31.5792184 9.78537512,30.7376426 C7.84044612,29.8960668 6.14372361,28.7553938 4.6951567,27.3155894 C3.24658978,25.8757849 2.10193519,24.1825192 1.26115859,22.2357414 C0.420381994,20.2889637 0,18.210404 0,16 C0,13.789596 0.420381994,11.7110363 1.26115859,9.76425856 C2.10193519,7.81748076 3.24658978,6.12421506 4.6951567,4.68441065 C6.14372361,3.24460624 7.84044612,2.10393323 9.78537512,1.26235741 C11.7303041,0.420781597 13.8068899,0 16.0151947,0 C18.2234995,0 20.2950204,0.420781597 22.2298196,1.26235741 C24.1646187,2.10393323 25.8562764,3.24460624 27.3048433,4.68441065 C28.7534102,6.12421506 29.8980648,7.81748076 30.7388414,9.76425856 C31.579618,11.7110363 32,13.789596 32,16 Z" id="" fill="#000000" fill-rule="nonzero"></path>
        <path d="M7.08007813,21 L7.08007813,17.1855469 L8.3984375,17.1855469 C8.69140625,17.1855469 8.90234375,17.1992188 9.03125,17.2265625 C9.20703125,17.2695312 9.37988281,17.3457031 9.54980469,17.4550781 C9.71972656,17.5644531 9.91210938,17.7558594 10.1269531,18.0292969 C10.3417969,18.3027344 10.6152344,18.6972656 10.9472656,19.2128906 L10.9472656,19.2128906 L12.0839844,21 L13.5136719,21 L12.0195313,18.6621094 C11.7226563,18.2050781 11.4082031,17.8242188 11.0761719,17.5195312 C10.9199219,17.3789062 10.6914063,17.2363281 10.390625,17.0917969 C11.2148438,16.9785156 11.8242188,16.7128906 12.21875,16.2949219 C12.6132813,15.8769531 12.8105469,15.3632812 12.8105469,14.7539062 C12.8105469,14.28125 12.6914063,13.8496094 12.453125,13.4589844 C12.2148438,13.0683594 11.8964844,12.7958984 11.4980469,12.6416016 C11.0996094,12.4873047 10.5175781,12.4101562 9.75195313,12.4101562 L9.75195313,12.4101562 L5.94335938,12.4101562 L5.94335938,21 L7.08007813,21 Z M9.5234375,16.2011719 L7.08007813,16.2011719 L7.08007813,13.359375 L9.79882813,13.359375 C10.4355469,13.359375 10.9013672,13.4902344 11.1962891,13.7519531 C11.4912109,14.0136719 11.6386719,14.3476562 11.6386719,14.7539062 C11.6386719,15.03125 11.5625,15.2880859 11.4101563,15.5244141 C11.2578125,15.7607422 11.0351563,15.9326172 10.7421875,16.0400391 C10.4492188,16.1474609 10.0429688,16.2011719 9.5234375,16.2011719 L9.5234375,16.2011719 Z M17.2972656,21 L17.2972656,13.4238281 L20.1390625,13.4238281 L20.1390625,12.4101562 L13.3304688,12.4101562 L13.3304688,13.4238281 L16.1605469,13.4238281 L16.1605469,21 L17.2972656,21 Z M24.45,21.1464844 C25.1960938,21.1464844 25.8914063,20.9697266 26.5359375,20.6162109 C27.1804688,20.2626953 27.6785156,19.7421875 28.0300781,19.0546875 C28.3816406,18.3671875 28.5574219,17.5878906 28.5574219,16.7167969 C28.5574219,15.8574219 28.3904297,15.0888672 28.0564453,14.4111328 C27.7224609,13.7333984 27.2371094,13.2050781 26.6003906,12.8261719 C25.9636719,12.4472656 25.2488281,12.2578125 24.4558594,12.2578125 C23.2449219,12.2578125 22.2566406,12.6611328 21.4910156,13.4677734 C20.7253906,14.2744141 20.3425781,15.390625 20.3425781,16.8164062 C20.3425781,17.5703125 20.5066406,18.2851562 20.8347656,18.9609375 C21.1628906,19.6367188 21.6453125,20.1699219 22.2820313,20.5605469 C22.91875,20.9511719 23.6414063,21.1464844 24.45,21.1464844 Z M24.4441406,20.1738281 C23.6042969,20.1738281 22.9060547,19.8759766 22.3494141,19.2802734 C21.7927734,18.6845703 21.5144531,17.8691406 21.5144531,16.8339844 C21.5144531,15.5410156 21.8044922,14.6181641 22.3845703,14.0654297 C22.9646484,13.5126953 23.6570313,13.2363281 24.4617188,13.2363281 C25.028125,13.2363281 25.5388672,13.3798828 25.9939453,13.6669922 C26.4490234,13.9541016 26.7947266,14.3583984 27.0310547,14.8798828 C27.2673828,15.4013672 27.3855469,16.0117188 27.3855469,16.7109375 C27.3855469,17.8164062 27.1091797,18.6699219 26.5564453,19.2714844 C26.0037109,19.8730469 25.2996094,20.1738281 24.4441406,20.1738281 Z" id="RTO" fill="#FFFFFF" fill-rule="nonzero"></path>
    </g>
</svg>