<?xml version="1.0" encoding="UTF-8"?>
<svg width="32px" height="32px" viewBox="0 0 32 32" version="1.1" xmlns="http://www.w3.org/2000/svg" xmlns:xlink="http://www.w3.org/1999/xlink">
    <!-- Generator: Sketch 64 (93537) - https://sketch.com -->
    <title>non-gps-medic_Maroon</title>
    <desc>Created with Sketch.</desc>
    <defs>
        <linearGradient x1="50%" y1="0%" x2="50%" y2="99.1791596%" id="linearGradient-1">
            <stop stop-color="#000000" offset="0%"></stop>
            <stop stop-color="#9B9B9B" offset="25.2190667%"></stop>
            <stop stop-color="#888888" offset="78.4206081%"></stop>
            <stop stop-color="#000000" offset="100%"></stop>
        </linearGradient>
        <path d="M12.1870256,1.31225741 L19.5156416,1.23951201 C18.8253695,2.16449368 18.4551877,4.26143235 18.4050962,7.53032801 C18.329959,12.4336715 18.6813563,20.8223266 18.8297266,24.9828108 C18.9286402,27.756467 19.4866214,29.800131 20.5036704,31.113803 L12.075984,31.316839 C13.1002566,30.4942396 13.6473249,28.4011921 13.7171889,25.0376965 C13.8219848,19.9924531 13.480664,10.9190233 13.3257206,7.42943309 C13.2224249,5.1030396 12.8428599,3.06398104 12.1870256,1.31225741 Z" id="path-2"></path>
        <filter x="-23.7%" y="-6.6%" width="147.5%" height="113.3%" filterUnits="objectBoundingBox" id="filter-3">
            <feGaussianBlur stdDeviation="1.5" in="SourceAlpha" result="shadowBlurInner1"></feGaussianBlur>
            <feOffset dx="1" dy="1" in="shadowBlurInner1" result="shadowOffsetInner1"></feOffset>
            <feComposite in="shadowOffsetInner1" in2="SourceAlpha" operator="arithmetic" k2="-1" k3="1" result="shadowInnerInner1"></feComposite>
            <feColorMatrix values="0 0 0 0 0.290221632   0 0 0 0 0.290175289   0 0 0 0 0.290237457  0 0 0 1 0" type="matrix" in="shadowInnerInner1"></feColorMatrix>
        </filter>
    </defs>
    <g id="non-gps-medic_Maroon" stroke="none" stroke-width="1" fill="none" fill-rule="evenodd">
        <circle id="Oval" fill="#7D0308" cx="16" cy="16" r="16"></circle>
        <g id="Rectangle" transform="translate(16.289827, 16.278176) rotate(-315.000000) translate(-16.289827, -16.278176) ">
            <use fill="url(#linearGradient-1)" fill-rule="evenodd" xlink:href="#path-2"></use>
            <use fill="black" fill-opacity="1" filter="url(#filter-3)" xlink:href="#path-2"></use>
        </g>
        <polygon id="+" fill="#FFFFFF" fill-rule="nonzero" points="14.7706612 23 14.7706612 17.1919505 9 17.1919505 9 14.7647059 14.7706612 14.7647059 14.7706612 9 17.2293388 9 17.2293388 14.7647059 23 14.7647059 23 17.1919505 17.2293388 17.1919505 17.2293388 23"></polygon>
        <path d="M16.0151947,30.9657795 C18.0816817,30.9657795 20.0164519,30.5754158 21.8195632,29.7946768 C23.6226744,29.0139378 25.2029055,27.94424 26.5603039,26.5855513 C27.9177023,25.2268627 28.9863842,23.6400598 29.7663818,21.8250951 C30.5463793,20.0101303 30.9363723,18.0684514 30.9363723,16 C30.9363723,13.9315486 30.5463793,11.9898697 29.7663818,10.1749049 C28.9863842,8.35994023 27.9177023,6.778207 26.5603039,5.42965779 C25.2029055,4.08110859 23.6226744,3.0114108 21.8195632,2.22053232 C20.0164519,1.42965384 18.0816817,1.03422053 16.0151947,1.03422053 C13.9487076,1.03422053 12.0088726,1.42965384 10.1956315,2.22053232 C8.38239043,3.0114108 6.79709447,4.08110859 5.43969611,5.42965779 C4.08229774,6.778207 3.0136158,8.35994023 2.23361823,10.1749049 C1.45362066,11.9898697 1.06362773,13.9315486 1.06362773,16 C1.06362773,18.0684514 1.45362066,20.0101303 2.23361823,21.8250951 C3.0136158,23.6400598 4.08229774,25.2268627 5.43969611,26.5855513 C6.79709447,27.94424 8.38239043,29.0139378 10.1956315,29.7946768 C12.0088726,30.5754158 13.9487076,30.9657795 16.0151947,30.9657795 Z M32,16 C32,18.210404 31.579618,20.2889637 30.7388414,22.2357414 C29.8980648,24.1825192 28.7534102,25.8757849 27.3048433,27.3155894 C25.8562764,28.7553938 24.1646187,29.8960668 22.2298196,30.7376426 C20.2950204,31.5792184 18.2234995,32 16.0151947,32 C13.8068899,32 11.7303041,31.5792184 9.78537512,30.7376426 C7.84044612,29.8960668 6.14372361,28.7553938 4.6951567,27.3155894 C3.24658978,25.8757849 2.10193519,24.1825192 1.26115859,22.2357414 C0.420381994,20.2889637 0,18.210404 0,16 C0,13.789596 0.420381994,11.7110363 1.26115859,9.76425856 C2.10193519,7.81748076 3.24658978,6.12421506 4.6951567,4.68441065 C6.14372361,3.24460624 7.84044612,2.10393323 9.78537512,1.26235741 C11.7303041,0.420781597 13.8068899,0 16.0151947,0 C18.2234995,0 20.2950204,0.420781597 22.2298196,1.26235741 C24.1646187,2.10393323 25.8562764,3.24460624 27.3048433,4.68441065 C28.7534102,6.12421506 29.8980648,7.81748076 30.7388414,9.76425856 C31.579618,11.7110363 32,13.789596 32,16 Z" id="" fill="#000000" fill-rule="nonzero"></path>
    </g>
</svg>