<?xml version="1.0" encoding="UTF-8"?>
<svg width="32px" height="32px" viewBox="0 0 32 32" version="1.1" xmlns="http://www.w3.org/2000/svg" xmlns:xlink="http://www.w3.org/1999/xlink">
    <title>sniper_Dark Blue</title>
    <g id="sniper_Dark-Blue" stroke="none" stroke-width="1" fill="none" fill-rule="evenodd">
        <circle id="Oval" fill="#020C7D" cx="16" cy="16" r="16"></circle>
        <path d="M16.0151947,30.9657795 C18.0816817,30.9657795 20.0164519,30.5754158 21.8195632,29.7946768 C23.6226744,29.0139378 25.2029055,27.94424 26.5603039,26.5855513 C27.9177023,25.2268627 28.9863842,23.6400598 29.7663818,21.8250951 C30.5463793,20.0101303 30.9363723,18.0684514 30.9363723,16 C30.9363723,13.9315486 30.5463793,11.9898697 29.7663818,10.1749049 C28.9863842,8.35994023 27.9177023,6.778207 26.5603039,5.42965779 C25.2029055,4.08110859 23.6226744,3.0114108 21.8195632,2.22053232 C20.0164519,1.42965384 18.0816817,1.03422053 16.0151947,1.03422053 C13.9487076,1.03422053 12.0088726,1.42965384 10.1956315,2.22053232 C8.38239043,3.0114108 6.79709447,4.08110859 5.43969611,5.42965779 C4.08229774,6.778207 3.0136158,8.35994023 2.23361823,10.1749049 C1.45362066,11.9898697 1.06362773,13.9315486 1.06362773,16 C1.06362773,18.0684514 1.45362066,20.0101303 2.23361823,21.8250951 C3.0136158,23.6400598 4.08229774,25.2268627 5.43969611,26.5855513 C6.79709447,27.94424 8.38239043,29.0139378 10.1956315,29.7946768 C12.0088726,30.5754158 13.9487076,30.9657795 16.0151947,30.9657795 Z M32,16 C32,18.210404 31.579618,20.2889637 30.7388414,22.2357414 C29.8980648,24.1825192 28.7534102,25.8757849 27.3048433,27.3155894 C25.8562764,28.7553938 24.1646187,29.8960668 22.2298196,30.7376426 C20.2950204,31.5792184 18.2234995,32 16.0151947,32 C13.8068899,32 11.7303041,31.5792184 9.78537512,30.7376426 C7.84044612,29.8960668 6.14372361,28.7553938 4.6951567,27.3155894 C3.24658978,25.8757849 2.10193519,24.1825192 1.26115859,22.2357414 C0.420381994,20.2889637 0,18.210404 0,16 C0,13.789596 0.420381994,11.7110363 1.26115859,9.76425856 C2.10193519,7.81748076 3.24658978,6.12421506 4.6951567,4.68441065 C6.14372361,3.24460624 7.84044612,2.10393323 9.78537512,1.26235741 C11.7303041,0.420781597 13.8068899,0 16.0151947,0 C18.2234995,0 20.2950204,0.420781597 22.2298196,1.26235741 C24.1646187,2.10393323 25.8562764,3.24460624 27.3048433,4.68441065 C28.7534102,6.12421506 29.8980648,7.81748076 30.7388414,9.76425856 C31.579618,11.7110363 32,13.789596 32,16 Z" id="" fill="#000000" fill-rule="nonzero"></path>
        <path d="M16.6015625,22.1953125 C17.4192708,22.1953125 18.1549479,22.0455729 18.8085938,21.7460938 C19.4622396,21.4466146 19.9635417,21.0273438 20.3125,20.4882812 C20.6614583,19.9492188 20.8359375,19.375 20.8359375,18.765625 C20.8359375,18.1510417 20.6770833,17.6080729 20.359375,17.1367188 C20.0416667,16.6653646 19.5494792,16.2760417 18.8828125,15.96875 C18.4244792,15.7604167 17.5794271,15.5169271 16.3476562,15.2382812 C15.1158854,14.9596354 14.3541667,14.6875 14.0625,14.421875 C13.765625,14.15625 13.6171875,13.8177083 13.6171875,13.40625 C13.6171875,12.9322917 13.8268229,12.5273438 14.2460938,12.1914062 C14.6653646,11.8554688 15.3333333,11.6875 16.25,11.6875 C17.1302083,11.6875 17.7955729,11.8723958 18.2460938,12.2421875 C18.6966146,12.6119792 18.9609375,13.1588542 19.0390625,13.8828125 L19.0390625,13.8828125 L20.4921875,13.7734375 C20.4661458,13.1015625 20.2786458,12.5 19.9296875,11.96875 C19.5807292,11.4375 19.0820312,11.0351562 18.4335938,10.7617188 C17.7851562,10.4882812 17.0364583,10.3515625 16.1875,10.3515625 C15.4166667,10.3515625 14.7161458,10.4817708 14.0859375,10.7421875 C13.4557292,11.0026042 12.9765625,11.3841146 12.6484375,11.8867188 C12.3203125,12.3893229 12.15625,12.9296875 12.15625,13.5078125 C12.15625,14.0338542 12.2903646,14.5091146 12.5585938,14.9335938 C12.8268229,15.3580729 13.234375,15.7135417 13.78125,16 C14.203125,16.2239583 14.9401042,16.4622396 15.9921875,16.7148438 C17.0442708,16.9674479 17.7239583,17.1536458 18.03125,17.2734375 C18.5104167,17.4557292 18.8541667,17.6809896 19.0625,17.9492188 C19.2708333,18.2174479 19.375,18.53125 19.375,18.890625 C19.375,19.2447917 19.2669271,19.5716146 19.0507812,19.8710938 C18.8346354,20.1705729 18.5052083,20.40625 18.0625,20.578125 C17.6197917,20.75 17.109375,20.8359375 16.53125,20.8359375 C15.8802083,20.8359375 15.2942708,20.7226562 14.7734375,20.4960938 C14.2526042,20.2695312 13.8684896,19.9726562 13.6210938,19.6054688 C13.3736979,19.2382812 13.2161458,18.7682292 13.1484375,18.1953125 L13.1484375,18.1953125 L11.71875,18.3203125 C11.7395833,19.0859375 11.9492188,19.7721354 12.3476562,20.3789062 C12.7460938,20.9856771 13.2955729,21.4401042 13.9960938,21.7421875 C14.6966146,22.0442708 15.5651042,22.1953125 16.6015625,22.1953125 Z" id="S" fill="#FFFFFF" fill-rule="nonzero"></path>
    </g>
</svg>