<?xml version="1.0" encoding="UTF-8"?>
<svg width="32px" height="32px" viewBox="0 0 32 32" version="1.1" xmlns="http://www.w3.org/2000/svg" xmlns:xlink="http://www.w3.org/1999/xlink">
    <!-- Generator: Sketch 55.1 (78136) - https://sketchapp.com -->
    <title>team-lead_Blank</title>
    <desc>Created with Sketch.</desc>
    <g id="team-lead_Blank" stroke="none" stroke-width="1" fill="none" fill-rule="evenodd">
        <circle id="Oval" fill="#FFFFFF" cx="16" cy="16" r="16"></circle>
        <path d="M16.0151947,30.9657795 C18.0816817,30.9657795 20.0164519,30.5754158 21.8195632,29.7946768 C23.6226744,29.0139378 25.2029055,27.94424 26.5603039,26.5855513 C27.9177023,25.2268627 28.9863842,23.6400598 29.7663818,21.8250951 C30.5463793,20.0101303 30.9363723,18.0684514 30.9363723,16 C30.9363723,13.9315486 30.5463793,11.9898697 29.7663818,10.1749049 C28.9863842,8.35994023 27.9177023,6.778207 26.5603039,5.42965779 C25.2029055,4.08110859 23.6226744,3.0114108 21.8195632,2.22053232 C20.0164519,1.42965384 18.0816817,1.03422053 16.0151947,1.03422053 C13.9487076,1.03422053 12.0088726,1.42965384 10.1956315,2.22053232 C8.38239043,3.0114108 6.79709447,4.08110859 5.43969611,5.42965779 C4.08229774,6.778207 3.0136158,8.35994023 2.23361823,10.1749049 C1.45362066,11.9898697 1.06362773,13.9315486 1.06362773,16 C1.06362773,18.0684514 1.45362066,20.0101303 2.23361823,21.8250951 C3.0136158,23.6400598 4.08229774,25.2268627 5.43969611,26.5855513 C6.79709447,27.94424 8.38239043,29.0139378 10.1956315,29.7946768 C12.0088726,30.5754158 13.9487076,30.9657795 16.0151947,30.9657795 Z M32,16 C32,18.210404 31.579618,20.2889637 30.7388414,22.2357414 C29.8980648,24.1825192 28.7534102,25.8757849 27.3048433,27.3155894 C25.8562764,28.7553938 24.1646187,29.8960668 22.2298196,30.7376426 C20.2950204,31.5792184 18.2234995,32 16.0151947,32 C13.8068899,32 11.7303041,31.5792184 9.78537512,30.7376426 C7.84044612,29.8960668 6.14372361,28.7553938 4.6951567,27.3155894 C3.24658978,25.8757849 2.10193519,24.1825192 1.26115859,22.2357414 C0.420381994,20.2889637 0,18.210404 0,16 C0,13.789596 0.420381994,11.7110363 1.26115859,9.76425856 C2.10193519,7.81748076 3.24658978,6.12421506 4.6951567,4.68441065 C6.14372361,3.24460624 7.84044612,2.10393323 9.78537512,1.26235741 C11.7303041,0.420781597 13.8068899,0 16.0151947,0 C18.2234995,0 20.2950204,0.420781597 22.2298196,1.26235741 C24.1646187,2.10393323 25.8562764,3.24460624 27.3048433,4.68441065 C28.7534102,6.12421506 29.8980648,7.81748076 30.7388414,9.76425856 C31.579618,11.7110363 32,13.789596 32,16 Z" id="" fill="#000000" fill-rule="nonzero"></path>
        <path d="M11.5375977,21.7373047 L11.5375977,12.2670898 L8,12.2670898 L8,11 L16.5107422,11 L16.5107422,12.2670898 L12.9584961,12.2670898 L12.9584961,21.7373047 L11.5375977,21.7373047 Z M17.909668,21.7373047 L17.909668,11 L19.3305664,11 L19.3305664,20.4702148 L24.6186523,20.4702148 L24.6186523,21.7373047 L17.909668,21.7373047 Z" id="TL" fill="#000000" fill-rule="nonzero"></path>
    </g>
</svg>