<?xml version="1.0" encoding="UTF-8" standalone="no"?>
<!DOCTYPE svg PUBLIC "-//W3C//DTD SVG 1.1//EN"
 "http://www.w3.org/Graphics/SVG/1.1/DTD/svg11.dtd">
<!-- Generated by graphviz version 2.42.4 (0)
 -->
<!-- Title: G Pages: 1 -->
<svg width="204pt" height="66pt"
 viewBox="0.00 0.00 204.20 66.20" xmlns="http://www.w3.org/2000/svg" xmlns:xlink="http://www.w3.org/1999/xlink">
<g id="graph0" class="graph" transform="scale(1 1) rotate(0) translate(21.6 44.6)">
<title>G</title>
<polygon fill="#111111" stroke="transparent" points="-21.6,21.6 -21.6,-44.6 182.6,-44.6 182.6,21.6 -21.6,21.6"/>
<!-- lib/server/validate&#45;env.js -->
<g id="node1" class="node">
<title>lib/server/validate&#45;env.js</title>
<path fill="none" stroke="#cfffac" d="M153.33,-23C153.33,-23 7.67,-23 7.67,-23 3.83,-23 0,-19.17 0,-15.33 0,-15.33 0,-7.67 0,-7.67 0,-3.83 3.83,0 7.67,0 7.67,0 153.33,0 153.33,0 157.17,0 161,-3.83 161,-7.67 161,-7.67 161,-15.33 161,-15.33 161,-19.17 157.17,-23 153.33,-23"/>
<text text-anchor="middle" x="80.5" y="-7.8" font-family="Arial" font-size="14.00" fill="#cfffac">lib/server/validate&#45;env.js</text>
</g>
</g>
</svg>
